# xmcd
#
# Track frame offsets:
#	150
#	17195
#	33653
#	53833
#	70925
#	84713
#	104503
#	120458
#	137333
#	152720
#	174030
#	189818
#	203315
#	214898
#	236963
#	252120
#	266153
#	276085
#	290670
#	301750
#
# Disc length: 4260 seconds
#
# Revision: 2
# Processed by: cddbd v1.4PL0 Copyright (c) Steve Scherf et al.
# Submitted via: audiograbber 1.81.03
#
DISCID=1810a214
DTITLE=Billie Holiday - Lady Sings the Blues
DYEAR=1987
DGENRE=Blues
TTITLE0=Moonlight in Vermont
TTITLE1=Love is Here to Stay
TTITLE2=Stars Fell on Alabama
TTITLE3=But Not For Me
TTITLE4=Strange Fruit
TTITLE5=Speak Low
TTITLE6=A Fine Romance
TTITLE7=Lady Sings the Blues
TTITLE8=I Wished on the Moon
TTITLE9=Sophisticated Lady
TTITLE10=Cheek to Cheek
TTITLE11=April in Paris
TTITLE12=Love Me or Leave Me
TTITLE13=When Your Lover has Gone
TTITLE14=Let's Call the Whole Thing Off
TTITLE15=Willow Weep for me
TTITLE16=Too Marvelous for Words
TTITLE17=Say it isn't so
TTITLE18=I cried for you
TTITLE19=God Bless the Child
EXTD=
EXTT0=
EXTT1=
EXTT2=
EXTT3=
EXTT4=
EXTT5=
EXTT6=
EXTT7=
EXTT8=
EXTT9=
EXTT10=
EXTT11=
EXTT12=
EXTT13=
EXTT14=
EXTT15=
EXTT16=
EXTT17=
EXTT18=
EXTT19=
PLAYORDER=
